<svg width="52" height="52" viewBox="0 0 52 52" fill="none" xmlns="http://www.w3.org/2000/svg">
<circle cx="26" cy="26" r="25" fill="white" stroke="black" stroke-width="2"/>
<mask id="path-2-inside-1" fill="white">
<path fill-rule="evenodd" clip-rule="evenodd" d="M4.91602 41.2174L16.3056 29.8278C15.4714 28.2351 14.9996 26.4226 14.9996 24.5C14.9996 18.1487 20.1483 13 26.4996 13C32.8509 13 37.9996 18.1487 37.9996 24.5C37.9996 26.615 37.4287 28.5966 36.4325 30.2991L47.1953 41.0619C42.4824 47.6821 34.7454 52 25.9999 52C17.3231 52 9.63894 47.7496 4.91602 41.2174Z"/>
</mask>
<path fill-rule="evenodd" clip-rule="evenodd" d="M4.91602 41.2174L16.3056 29.8278C15.4714 28.2351 14.9996 26.4226 14.9996 24.5C14.9996 18.1487 20.1483 13 26.4996 13C32.8509 13 37.9996 18.1487 37.9996 24.5C37.9996 26.615 37.4287 28.5966 36.4325 30.2991L47.1953 41.0619C42.4824 47.6821 34.7454 52 25.9999 52C17.3231 52 9.63894 47.7496 4.91602 41.2174Z" fill="#E3E3E3"/>
<path d="M16.3056 29.8278L17.7198 31.242L18.7594 30.2024L18.0773 28.8999L16.3056 29.8278ZM4.91602 41.2174L3.5018 39.8032L2.29677 41.0082L3.29527 42.3892L4.91602 41.2174ZM36.4325 30.2991L34.7063 29.2891L33.9266 30.6217L35.0183 31.7133L36.4325 30.2991ZM47.1953 41.0619L48.8246 42.2218L49.8056 40.8438L48.6095 39.6477L47.1953 41.0619ZM14.8914 28.4136L3.5018 39.8032L6.33023 42.6316L17.7198 31.242L14.8914 28.4136ZM12.9996 24.5C12.9996 26.7535 13.5533 28.8835 14.5339 30.7557L18.0773 28.8999C17.3895 27.5866 16.9996 26.0918 16.9996 24.5H12.9996ZM26.4996 11C19.0438 11 12.9996 17.0442 12.9996 24.5H16.9996C16.9996 19.2533 21.2529 15 26.4996 15V11ZM39.9996 24.5C39.9996 17.0442 33.9555 11 26.4996 11V15C31.7463 15 35.9996 19.2533 35.9996 24.5H39.9996ZM38.1588 31.3091C39.3293 29.3085 39.9996 26.9795 39.9996 24.5H35.9996C35.9996 26.2504 35.5281 27.8846 34.7063 29.2891L38.1588 31.3091ZM48.6095 39.6477L37.8468 28.8849L35.0183 31.7133L45.7811 42.4761L48.6095 39.6477ZM45.566 39.902C41.2122 46.0178 34.0711 50 25.9999 50V54C35.4197 54 43.7526 49.3465 48.8246 42.2218L45.566 39.902ZM25.9999 50C17.992 50 10.8998 46.0801 6.53676 40.0456L3.29527 42.3892C8.37808 49.4192 16.6541 54 25.9999 54V50Z" fill="black" mask="url(#path-2-inside-1)"/>
</svg>
